<svg width="12" height="12" viewBox="0 0 12 12" fill="none" xmlns="http://www.w3.org/2000/svg">
<path d="M10.7824 0.00219633L0.763005 0.00215471C0.372908 -0.0280254 0.0321495 0.26374 0.00201315 0.65388C-0.0281666 1.04398 0.263597 1.38474 0.653738 1.41487C0.690117 1.41767 0.726669 1.41771 0.763006 1.41487L9.07413 1.41991L0.262196 10.2318C-0.0144584 10.5085 -0.0144589 10.9571 0.262238 11.2338C0.538935 11.5105 0.987498 11.5105 1.26415 11.2338L10.0761 2.42187L10.0761 10.7279C10.0459 11.118 10.3377 11.4588 10.7278 11.4889C11.1179 11.5191 11.4587 11.2274 11.4888 10.8372C11.4916 10.8008 11.4916 10.7643 11.4888 10.728L11.4888 0.708469C11.4877 0.318932 11.1721 0.00335823 10.7824 0.00219633Z" fill="currentColor"/>
</svg>
