<svg width="19" height="19" viewBox="0 0 19 19" fill="none" xmlns="http://www.w3.org/2000/svg">
<path d="M18.1774 8.66568L9.80444 0.292688C9.50367 -0.0585254 8.97509 -0.0994677 8.62387 0.201377C8.27266 0.50215 8.23171 1.03073 8.53256 1.38195C8.56062 1.41469 8.59113 1.44527 8.62387 1.47326L15.565 8.42283H0.837271C0.374887 8.42283 0 8.79772 0 9.26018C0 9.72263 0.374887 10.0974 0.837271 10.0974H15.565L8.62387 17.0386C8.27266 17.3394 8.23171 17.868 8.53256 18.2192C8.8334 18.5704 9.36192 18.6113 9.71313 18.3105C9.74587 18.2824 9.77645 18.2519 9.80444 18.2192L18.1774 9.84618C18.502 9.51972 18.502 8.99229 18.1774 8.66568Z" fill="currentColor"/>
</svg>
