<svg width="20" height="20" viewBox="0 0 20 20" fill="none" xmlns="http://www.w3.org/2000/svg">
<g clip-path="url(#clip0_360_4225)">
<path fill-rule="evenodd" clip-rule="evenodd" d="M5.83334 3.33317C5.83334 2.89114 6.00894 2.46722 6.3215 2.15466C6.63406 1.8421 7.05798 1.6665 7.50001 1.6665H12.5C12.942 1.6665 13.366 1.8421 13.6785 2.15466C13.9911 2.46722 14.1667 2.89114 14.1667 3.33317V4.1665C14.1667 4.4815 14.0792 4.7765 13.9267 5.02817L15.3333 6.08317C15.7473 6.39366 16.0833 6.79627 16.3148 7.25913C16.5462 7.72198 16.6667 8.23235 16.6667 8.74984V14.9998C16.6667 15.8839 16.3155 16.7317 15.6904 17.3569C15.0652 17.982 14.2174 18.3332 13.3333 18.3332H6.66668C5.78262 18.3332 4.93478 17.982 4.30965 17.3569C3.68453 16.7317 3.33334 15.8839 3.33334 14.9998V8.74984C3.33334 8.23235 3.45383 7.72198 3.68525 7.25913C3.91668 6.79627 4.25269 6.39366 4.66668 6.08317L6.07334 5.02817C5.91593 4.76835 5.83291 4.47029 5.83334 4.1665V3.33317ZM8.05584 5.83317C7.87554 5.83317 7.70009 5.89165 7.55584 5.99984L5.66668 7.4165C5.45968 7.57175 5.29168 7.77306 5.17596 8.00448C5.06025 8.23591 5.00001 8.4911 5.00001 8.74984V9.1665H15V8.74984C15 8.4911 14.9398 8.23591 14.8241 8.00448C14.7083 7.77306 14.5403 7.57175 14.3333 7.4165L12.4442 5.99984C12.2999 5.89165 12.1245 5.83317 11.9442 5.83317H8.05584ZM15 10.8332H5.00001V12.4998H15V10.8332ZM15 14.1665H5.00001V14.9998C5.00001 15.4419 5.1756 15.8658 5.48817 16.1783C5.80073 16.4909 6.22465 16.6665 6.66668 16.6665H13.3333C13.7754 16.6665 14.1993 16.4909 14.5119 16.1783C14.8244 15.8658 15 15.4419 15 14.9998V14.1665ZM12.5 4.1665V3.33317H7.50001V4.1665H12.5Z" fill="#C92531"/>
</g>
<defs>
<clipPath id="clip0_360_4225">
<rect width="20" height="20" fill="white"/>
</clipPath>
</defs>
</svg>
