<svg width="26" height="26" viewBox="0 0 26 26" fill="none" xmlns="http://www.w3.org/2000/svg">
<path d="M16.25 0.8125C16.25 2.32747 16.5293 3.72396 17.0879 5.00195C17.6465 6.27995 18.4505 7.45638 19.5 8.53125C20.5495 9.60612 21.3535 10.7826 21.9121 12.0605C22.4707 13.3385 22.75 14.735 22.75 16.25C22.75 17.1471 22.6357 18.0104 22.4072 18.8398C22.1787 19.6693 21.8486 20.4437 21.417 21.1631C20.9854 21.8825 20.4775 22.5426 19.8936 23.1436C19.3096 23.7445 18.6536 24.2523 17.9258 24.667C17.1979 25.0817 16.4193 25.4076 15.5898 25.6445C14.7604 25.8815 13.8971 26 13 26C12.1029 26 11.2396 25.8857 10.4102 25.6572C9.58073 25.4287 8.80631 25.0986 8.08691 24.667C7.36751 24.2354 6.70736 23.7275 6.10645 23.1436C5.50553 22.5596 4.99772 21.9036 4.58301 21.1758C4.16829 20.4479 3.84245 19.6693 3.60547 18.8398C3.36849 18.0104 3.25 17.1471 3.25 16.25C3.25 15.5391 3.32617 14.8408 3.47852 14.1553C3.63086 13.4697 3.85091 12.8138 4.13867 12.1875C4.42643 11.5612 4.7819 10.9645 5.20508 10.3975C5.62826 9.8304 6.10645 9.31836 6.63965 8.86133C6.69889 9.18294 6.7793 9.51302 6.88086 9.85156C6.98242 10.1901 7.10091 10.5286 7.23633 10.8672C7.37174 11.2057 7.53255 11.5273 7.71875 11.832C7.90495 12.1367 8.09961 12.4202 8.30273 12.6826C8.47201 12.8942 8.69206 13 8.96289 13C9.19141 13 9.38184 12.9196 9.53418 12.7588C9.68652 12.598 9.76693 12.4033 9.77539 12.1748C9.77539 12.0817 9.7627 11.9971 9.7373 11.9209C9.71191 11.8447 9.6696 11.7686 9.61035 11.6924C9.37337 11.3454 9.16602 11.0026 8.98828 10.6641C8.81055 10.3255 8.65397 9.97852 8.51855 9.62305C8.38314 9.26758 8.28581 8.89941 8.22656 8.51855C8.16732 8.1377 8.13346 7.73568 8.125 7.3125C8.125 6.30534 8.31543 5.35742 8.69629 4.46875C9.07715 3.58008 9.60189 2.80566 10.2705 2.14551C10.9391 1.48535 11.7135 0.964844 12.5938 0.583984C13.474 0.203125 14.4219 0.00846354 15.4375 0H16.25V0.8125ZM13 24.375C14.1257 24.375 15.1794 24.1634 16.1611 23.7402C17.1429 23.3171 18.0062 22.7373 18.751 22.001C19.4958 21.2646 20.0755 20.4056 20.4902 19.4238C20.9049 18.4421 21.1165 17.3841 21.125 16.25C21.125 14.972 20.888 13.7829 20.4141 12.6826C19.9401 11.5824 19.2546 10.5837 18.3574 9.68652C17.2572 8.5778 16.3939 7.35482 15.7676 6.01758C15.1413 4.68034 14.7689 3.23307 14.6504 1.67578C13.9479 1.76888 13.3005 1.98047 12.708 2.31055C12.1156 2.64062 11.5951 3.05957 11.1465 3.56738C10.6979 4.0752 10.3551 4.64648 10.1182 5.28125C9.88119 5.91602 9.75846 6.5931 9.75 7.3125C9.75 7.97266 9.84733 8.56934 10.042 9.10254C10.2367 9.63574 10.5244 10.1689 10.9053 10.7021C11.0661 10.9222 11.1888 11.1507 11.2734 11.3877C11.3581 11.6247 11.4046 11.887 11.4131 12.1748C11.4131 12.5133 11.3496 12.8307 11.2227 13.127C11.0957 13.4232 10.918 13.6813 10.6895 13.9014C10.4609 14.1214 10.2028 14.2992 9.91504 14.4346C9.62728 14.57 9.3099 14.6335 8.96289 14.625C8.57357 14.625 8.23079 14.5531 7.93457 14.4092C7.63835 14.2653 7.37598 14.0706 7.14746 13.8252C6.91895 13.5798 6.71582 13.3047 6.53809 13C6.36035 12.6953 6.19108 12.3906 6.03027 12.0859C5.64095 12.7038 5.35319 13.3682 5.16699 14.0791C4.98079 14.79 4.88346 15.5137 4.875 16.25C4.875 17.3757 5.08659 18.4294 5.50977 19.4111C5.93294 20.3929 6.5127 21.2562 7.24902 22.001C7.98535 22.7458 8.8444 23.3255 9.82617 23.7402C10.8079 24.1549 11.8659 24.3665 13 24.375Z" fill="#C92531"/>
</svg>
