<svg width="28" height="28" viewBox="0 0 28 28" fill="none" xmlns="http://www.w3.org/2000/svg">
<path d="M22.4409 20.1378C22.4409 20.9009 22.1378 21.6326 21.5983 22.1722C21.0587 22.7117 20.327 23.0148 19.5639 23.0148C18.8009 23.0148 18.0691 22.7117 17.5296 22.1722C16.9901 21.6326 16.687 20.9009 16.687 20.1378C16.687 19.3748 16.9901 18.6431 17.5296 18.1035C18.0691 17.564 18.8009 17.2609 19.5639 17.2609C20.327 17.2609 21.0587 17.564 21.5983 18.1035C22.1378 18.6431 22.4409 19.3748 22.4409 20.1378ZM10.933 20.1378C10.933 20.9009 10.6299 21.6326 10.0903 22.1722C9.5508 22.7117 8.81902 23.0148 8.056 23.0148C7.29298 23.0148 6.5612 22.7117 6.02167 22.1722C5.48213 21.6326 5.17902 20.9009 5.17902 20.1378C5.17902 19.3748 5.48213 18.6431 6.02167 18.1035C6.5612 17.564 7.29298 17.2609 8.056 17.2609C8.81902 17.2609 9.5508 17.564 10.0903 18.1035C10.6299 18.6431 10.933 19.3748 10.933 20.1378Z" stroke="white" stroke-width="1.84127" stroke-linecap="round" stroke-linejoin="round"/>
<path d="M16.6867 20.1383H10.9327M22.4406 20.1383H23.3187C23.5719 20.1383 23.6985 20.1383 23.8043 20.1244C24.1853 20.077 24.5396 19.9039 24.8112 19.6326C25.0827 19.3612 25.2561 19.007 25.3038 18.6261C25.3176 18.5191 25.3176 18.3925 25.3176 18.1393V14.9597C25.3176 12.9758 24.5295 11.0732 23.1267 9.67041C21.7239 8.26761 19.8213 7.47952 17.8375 7.47952M2.30176 4.60254H13.8097C15.4369 4.60254 16.2505 4.60254 16.7557 5.10889C17.2621 5.61294 17.2621 6.42655 17.2621 8.05492V17.8367M2.30176 14.672V17.2613C2.30176 18.3373 2.30176 18.8747 2.53307 19.2752C2.68457 19.5375 2.90246 19.7554 3.16485 19.9069C3.56533 20.1383 4.10275 20.1383 5.17874 20.1383M2.30176 8.05492H9.20652M2.30176 11.5073H6.90493" stroke="white" stroke-width="1.84127" stroke-linecap="round" stroke-linejoin="round"/>
</svg>
