<svg xmlns="http://www.w3.org/2000/svg" fill="none" viewBox="5.5 5.5 33 33">
<path d="M22 38.5C18.7366 38.5 15.5465 37.5323 12.8331 35.7193C10.1197 33.9062 8.00484 31.3293 6.756 28.3143C5.50715 25.2993 5.18039 21.9817 5.81705 18.781C6.45371 15.5803 8.02518 12.6403 10.3327 10.3327C12.6403 8.02518 15.5803 6.45371 18.781 5.81705C21.9817 5.18039 25.2993 5.50715 28.3143 6.756C31.3293 8.00484 33.9062 10.1197 35.7193 12.8331C37.5323 15.5465 38.5 18.7366 38.5 22C38.5 26.3761 36.7616 30.5729 33.6673 33.6673C30.5729 36.7616 26.3761 38.5 22 38.5ZM22 8.25001C19.2805 8.25001 16.6221 9.05643 14.3609 10.5673C12.0997 12.0782 10.3374 14.2256 9.29666 16.7381C8.25596 19.2506 7.98366 22.0153 8.51421 24.6825C9.04476 27.3497 10.3543 29.7998 12.2773 31.7227C14.2003 33.6457 16.6503 34.9553 19.3175 35.4858C21.9848 36.0164 24.7494 35.7441 27.2619 34.7034C29.7744 33.6626 31.9218 31.9003 33.4327 29.6391C34.9436 27.3779 35.75 24.7195 35.75 22C35.75 18.3533 34.3014 14.8559 31.7227 12.2773C29.1441 9.69866 25.6467 8.25001 22 8.25001Z" fill="#C92531"/>
<path d="M22 23.8333C21.6368 23.8285 21.2898 23.6822 21.033 23.4253C20.7761 23.1685 20.6297 22.8215 20.625 22.4583V16.0416C20.625 15.677 20.7699 15.3272 21.0277 15.0694C21.2856 14.8115 21.6353 14.6666 22 14.6666C22.3647 14.6666 22.7144 14.8115 22.9723 15.0694C23.2301 15.3272 23.375 15.677 23.375 16.0416V22.4583C23.3703 22.8215 23.2239 23.1685 22.967 23.4253C22.7102 23.6822 22.3632 23.8285 22 23.8333ZM22 29.3333C21.6368 29.3285 21.2898 29.1822 21.033 28.9253C20.7761 28.6685 20.6297 28.3215 20.625 27.9583V27.0416C20.625 26.677 20.7699 26.3272 21.0277 26.0694C21.2856 25.8115 21.6353 25.6666 22 25.6666C22.3647 25.6666 22.7144 25.8115 22.9723 26.0694C23.2301 26.3272 23.375 26.677 23.375 27.0416V27.9583C23.3703 28.3215 23.2239 28.6685 22.967 28.9253C22.7102 29.1822 22.3632 29.3285 22 29.3333Z" fill="#C92531"/>
</svg>