<svg xmlns="http://www.w3.org/2000/svg" fill="none" viewBox="0 0 98 98" height="98" width="98">
<rect fill="#EFEFEF" height="98" width="98"></rect>
<rect fill="#EFEFEF" rx="12" height="98" width="98"></rect>
<g clip-path="url(#clip0_360_3810)">
<rect fill="#EFEFEF" transform="translate(24 24.5)" height="50" width="50"></rect>
<path fill="#2A2A2A" d="M45.1424 40.8759H57.3749C57.5959 40.8759 57.8078 40.7881 57.9641 40.6318C58.1204 40.4755 58.2082 40.2636 58.2082 40.0426C58.2082 39.8215 58.1204 39.6096 57.9641 39.4533C57.8078 39.297 57.5959 39.2092 57.3749 39.2092H45.1424C44.9213 39.2092 44.7094 39.297 44.5531 39.4533C44.3968 39.6096 44.309 39.8215 44.309 40.0426C44.309 40.2636 44.3968 40.4755 44.5531 40.6318C44.7094 40.7881 44.9213 40.8759 45.1424 40.8759Z"></path>
<path fill="#2A2A2A" d="M67.1917 49.7833C67.3259 49.7154 67.4389 49.6118 67.5183 49.4839C67.5976 49.356 67.6403 49.2088 67.6417 49.0583V44.7333C67.6417 44.5123 67.5539 44.3004 67.3976 44.1441C67.2413 43.9878 67.0293 43.9 66.8083 43.9H63.9083V33.875C63.9105 33.875 63.9127 33.8741 63.9142 33.8726C63.9158 33.871 63.9167 33.8689 63.9167 33.8667L63.9083 33.8583V33.85C63.9086 33.7416 63.8874 33.6343 63.8459 33.5341C63.8044 33.434 63.7435 33.3431 63.6667 33.2667L55.1417 24.7417C55.0752 24.6821 54.9991 24.6342 54.9167 24.6C54.9 24.5917 54.8917 24.575 54.875 24.5667C54.7717 24.5246 54.6615 24.502 54.55 24.5H29.8333C29.6123 24.5 29.4004 24.5878 29.2441 24.7441C29.0878 24.9004 29 25.1123 29 25.3333V70.9667C29 71.1877 29.0878 71.3996 29.2441 71.5559C29.4004 71.7122 29.6123 71.8 29.8333 71.8H51.9333V71.9C51.9347 72.5906 52.2102 73.2524 52.6993 73.74C53.1884 74.2275 53.8511 74.5009 54.5417 74.5H67.5C68.1893 74.4991 68.8501 74.2249 69.3375 73.7375C69.8249 73.2501 70.0991 72.5893 70.1 71.9V54.7667C70.0991 54.2362 69.9363 53.7187 69.6333 53.2833L67.1917 49.7833ZM63.075 45.5667H65.975V48.225H56.0667V45.5667H63.075ZM52.4 53.2833C52.0971 53.7187 51.9342 54.2362 51.9333 54.7667V59.175H45.1417C44.9207 59.175 44.7087 59.2628 44.5524 59.4191C44.3961 59.5754 44.3083 59.7873 44.3083 60.0083C44.3083 60.2294 44.3961 60.4413 44.5524 60.5976C44.7087 60.7539 44.9207 60.8417 45.1417 60.8417H51.9333V70.1333H30.6667V26.1667H53.7167V33.8667C53.7167 34.0877 53.8045 34.2996 53.9607 34.4559C54.117 34.6122 54.329 34.7 54.55 34.7H62.2417V43.9H55.2333C55.0123 43.9 54.8004 43.9878 54.6441 44.1441C54.4878 44.3004 54.4 44.5123 54.4 44.7333V49.0583C54.4035 49.1035 54.4119 49.1482 54.425 49.1917H45.1417C44.9207 49.1917 44.7087 49.2795 44.5524 49.4357C44.3961 49.592 44.3083 49.804 44.3083 50.025C44.3083 50.246 44.3961 50.458 44.5524 50.6143C44.7087 50.7705 44.9207 50.8583 45.1417 50.8583H54.0833L52.4 53.2833ZM68.4333 71.9C68.4336 72.0226 68.4096 72.1441 68.3627 72.2574C68.3159 72.3708 68.2472 72.4737 68.1605 72.5605C68.0737 72.6472 67.9708 72.7159 67.8574 72.7627C67.7441 72.8096 67.6226 72.8336 67.5 72.8333H54.5417C54.2932 72.834 54.0545 72.7361 53.878 72.5612C53.7015 72.3863 53.6015 72.1485 53.6 71.9V70.05H61.775C61.996 70.05 62.208 69.9622 62.3643 69.8059C62.5205 69.6496 62.6083 69.4377 62.6083 69.2167V57.2167C62.6083 56.9957 62.5205 56.7837 62.3643 56.6274C62.208 56.4711 61.996 56.3833 61.775 56.3833H53.6V54.7667C53.6014 54.5763 53.6594 54.3906 53.7667 54.2333L56.8 49.8917H65.2417L68.2583 54.225C68.3706 54.3834 68.4317 54.5725 68.4333 54.7667V71.9Z"></path>
<path fill="#2A2A2A" d="M38.4418 62.0833C39.5878 62.0833 40.5168 61.1543 40.5168 60.0084C40.5168 58.8624 39.5878 57.9333 38.4418 57.9333C37.2958 57.9333 36.3668 58.8624 36.3668 60.0084C36.3668 61.1543 37.2958 62.0833 38.4418 62.0833Z"></path>
<path fill="#2A2A2A" d="M38.4418 52.1C39.5878 52.1 40.5168 51.1709 40.5168 50.025C40.5168 48.879 39.5878 47.95 38.4418 47.95C37.2958 47.95 36.3668 48.879 36.3668 50.025C36.3668 51.1709 37.2958 52.1 38.4418 52.1Z"></path>
<path fill="#2A2A2A" d="M38.4418 37.9667C38.0314 37.9667 37.6302 38.0884 37.289 38.3164C36.9477 38.5444 36.6818 38.8685 36.5247 39.2476C36.3677 39.6268 36.3266 40.044 36.4066 40.4465C36.4867 40.849 36.6843 41.2187 36.9745 41.5089C37.2647 41.7991 37.6344 41.9967 38.0369 42.0768C38.4395 42.1569 38.8567 42.1158 39.2358 41.9587C39.615 41.8017 39.9391 41.5357 40.1671 41.1945C40.3951 40.8533 40.5168 40.4521 40.5168 40.0417C40.5146 39.492 40.2952 38.9655 39.9066 38.5769C39.5179 38.1882 38.9914 37.9689 38.4418 37.9667Z"></path>
</g>
<defs>
<clipPath id="clip0_360_3810">
<rect transform="translate(24 24.5)" fill="white" height="50" width="50"></rect>
</clipPath>
</defs>
</svg>
