<svg width="46" height="46" viewBox="0 0 46 46" fill="none" xmlns="http://www.w3.org/2000/svg">
<path d="M45.388 23.5178C45.3896 22.0607 45.2706 20.6058 45.0322 19.168H23.1914V27.8097H35.688C35.4133 29.2011 34.8619 30.5244 34.0659 31.7022C33.2699 32.88 32.2453 33.8887 31.0518 34.6694V40.4171H38.5025C42.8752 36.4134 45.388 30.5116 45.388 23.5178Z" fill="#4285F4"/>
<path d="M23.1914 46.0001C29.451 46.0001 34.6882 43.9301 38.5138 40.4176L31.0564 34.6676C28.9691 36.0476 26.3279 36.9006 23.1914 36.9006C17.1435 36.9006 12.0233 32.8567 10.186 27.3948H2.49219V33.3167C4.41575 37.1275 7.37072 40.3322 11.0264 42.5722C14.6821 44.8123 18.8942 45.9991 23.1914 46.0001Z" fill="#34A853"/>
<path d="M10.1818 27.3877C9.69482 25.9755 9.44975 24.4924 9.45674 22.9999C9.46266 21.5077 9.71051 20.0262 10.1908 18.6121V12.6902H2.49245C0.854034 15.884 0 19.4166 0 22.9999C0 26.5833 0.854034 30.1159 2.49245 33.3096L10.1818 27.3877Z" fill="#FBBC05"/>
<path d="M23.1918 9.10615C26.612 9.10615 29.6652 10.2762 32.079 12.5561L38.683 6.00229C34.6751 2.28435 29.4468 0 23.1918 0C18.8951 0.00196554 14.6838 1.18958 11.029 3.42995C7.37411 5.67033 4.41997 8.87508 2.49707 12.6856L10.1864 18.6075C12.0192 13.1501 17.1394 9.10615 23.1918 9.10615Z" fill="#EA4335"/>
</svg>
