<svg width="20" height="20" viewBox="0 0 20 20" fill="none" xmlns="http://www.w3.org/2000/svg">
<rect width="19.8164" height="19.8164" rx="9.90818" fill="#DAFFE4"/>
<path d="M12.9409 6.02402L7.67309 11.2919L6.20337 9.83041C6.0442 9.73528 5.85763 9.6965 5.67373 9.72032C5.48982 9.74414 5.31929 9.82917 5.1896 9.96172C5.05992 10.0943 4.97863 10.2666 4.95882 10.451C4.93902 10.6354 4.98186 10.821 5.08045 10.9781L7.11988 13.0175C7.27384 13.1664 7.4796 13.2495 7.69373 13.2495C7.90786 13.2495 8.11362 13.1664 8.26758 13.0175L14.1134 7.16346C14.2598 7.00991 14.3414 6.80589 14.3414 6.59374C14.3414 6.38159 14.2598 6.17758 14.1134 6.02402C14.0366 5.94663 13.9453 5.88521 13.8447 5.84329C13.7441 5.80137 13.6362 5.77979 13.5272 5.77979C13.4182 5.77979 13.3102 5.80137 13.2096 5.84329C13.109 5.88521 13.0177 5.94663 12.9409 6.02402Z" fill="#34A853"/>
</svg>
