<svg width="26" height="26" viewBox="0 0 26 26" fill="none" xmlns="http://www.w3.org/2000/svg">
<mask id="mask0_375_6779" style="mask-type:luminance" maskUnits="userSpaceOnUse" x="0" y="0" width="26" height="26">
<path d="M0 0H26V26H0V0Z" fill="white"/>
</mask>
<g mask="url(#mask0_375_6779)">
<path d="M2.28516 16.0469L10.7002 6.43099C11.2589 5.78881 12.082 5.38281 13 5.38281C13.918 5.38281 14.7411 5.78881 15.2997 6.43099L23.7148 16.0469" stroke="#C92531" stroke-width="1.5" stroke-miterlimit="10" stroke-linecap="round" stroke-linejoin="round"/>
<path d="M5.33203 20.6172C5.33203 18.332 0.761719 18.332 0.761719 16.0469H25.2383C25.2383 18.332 20.668 18.332 20.668 20.6172H5.33203Z" stroke="#C92531" stroke-width="1.5" stroke-miterlimit="10" stroke-linecap="round" stroke-linejoin="round"/>
<path d="M13.7617 8.42969C13.7617 8.85036 13.4207 9.1914 13 9.1914C12.5793 9.1914 12.2383 8.85036 12.2383 8.42969C12.2383 8.00901 12.5793 7.66797 13 7.66797C13.4207 7.66797 13.7617 8.00901 13.7617 8.42969Z" fill="#C92531"/>
<path d="M10.7148 11.4766C10.7148 11.8972 10.3738 12.2383 9.95312 12.2383C9.53245 12.2383 9.19141 11.8972 9.19141 11.4766C9.19141 11.0559 9.53245 10.7148 9.95312 10.7148C10.3738 10.7148 10.7148 11.0559 10.7148 11.4766Z" fill="#C92531"/>
<path d="M13.7617 11.4766C13.7617 11.8972 13.4207 12.2383 13 12.2383C12.5793 12.2383 12.2383 11.8972 12.2383 11.4766C12.2383 11.0559 12.5793 10.7148 13 10.7148C13.4207 10.7148 13.7617 11.0559 13.7617 11.4766Z" fill="#C92531"/>
</g>
</svg>
