<svg width="118" height="20" viewBox="0 0 118 20" fill="none" xmlns="http://www.w3.org/2000/svg">
<path d="M10.5303 0L13.0194 7.63813H21.0694L14.5656 12.353L17.0548 19.9912L10.551 15.2763L4.0294 19.9912L6.52155 12.353L0 7.63813H8.05881L10.5303 0ZM32.1909 7.63813H24.1321L30.6536 12.353L28.1644 20L34.686 15.2851L41.2046 20L38.7154 12.3619L45.234 7.64697H37.1722L34.683 0.00884007L32.1909 7.63813ZM56.3466 7.63813H48.2878L54.8064 12.353L52.3172 19.9912L58.8358 15.2763L65.3573 19.9912L62.8652 12.353L69.3867 7.63813H61.3279L58.8358 0L56.3466 7.63813ZM80.4994 7.63813H72.4406L78.9592 12.353L76.47 19.9912L82.9886 15.2763L89.5101 19.9912L87.0209 12.353L93.5247 7.63813H85.4807L82.9886 0L80.4994 7.63813ZM104.652 7.63813H96.5933L103.115 12.353L100.623 19.9912L107.144 15.2763L113.663 19.9912L111.174 12.353L117.692 7.63813H109.633L107.144 0L104.652 7.63813Z" fill="#FBBC05"/>
</svg>
