<svg width="27" height="28" viewBox="0 0 27 28" fill="none" xmlns="http://www.w3.org/2000/svg">
<path d="M13.4795 0.25C15.1179 0.25 16.7166 0.776751 18.0527 1.75781C19.3891 2.73912 20.397 4.1271 20.9346 5.72852C21.4721 7.32988 21.5125 9.06426 21.0498 10.6904C20.5871 12.3167 19.6449 13.7525 18.3555 14.7988L18.0283 15.0645L18.418 15.2246C20.6635 16.1437 22.6258 17.6757 24.0928 19.6582C25.5594 21.6404 26.4756 23.998 26.7432 26.4775V26.4785C26.7747 26.7823 26.6885 27.0855 26.5049 27.3223C26.3239 27.5556 26.0636 27.7045 25.7803 27.7412H25.6475C25.3762 27.7429 25.1129 27.641 24.9082 27.4531C24.7033 27.265 24.5716 27.0042 24.541 26.7197V26.7188C24.2366 23.9248 22.9448 21.3428 20.9102 19.4668C18.8751 17.5905 16.2393 16.5527 13.5068 16.5527C10.7745 16.5528 8.13946 17.5907 6.10449 19.4668C4.06975 21.3428 2.77707 23.9248 2.47266 26.7188V26.7197C2.43986 27.0272 2.2906 27.307 2.05957 27.498C1.82887 27.6888 1.53545 27.7761 1.24414 27.7432C0.952614 27.7101 0.683069 27.5586 0.49707 27.3193C0.405076 27.2009 0.336302 27.0645 0.294922 26.918C0.253518 26.7712 0.240611 26.617 0.256836 26.4648C0.52294 23.9918 1.43512 21.6406 2.89453 19.6611C4.35401 17.6816 6.30571 16.1477 8.54199 15.2236L8.93066 15.0635L8.60449 14.7988C7.31504 13.7525 6.37287 12.3167 5.91016 10.6904C5.44749 9.06432 5.48697 7.32983 6.02441 5.72852C6.56199 4.12717 7.57 2.73912 8.90625 1.75781C10.2424 0.776666 11.8411 0.250083 13.4795 0.25ZM15.6553 3.00195C14.6171 2.55844 13.4738 2.44275 12.3711 2.66895C11.2684 2.89515 10.2563 3.45325 9.46289 4.27148C8.66972 5.0896 8.13055 6.13108 7.91211 7.26367C7.69367 8.3963 7.80571 9.57032 8.23438 10.6377C8.66309 11.7052 9.38965 12.6193 10.3232 13.2627C11.2568 13.9059 12.3553 14.2499 13.4795 14.25C14.9876 14.25 16.4331 13.6315 17.4971 12.5342C18.5604 11.4373 19.1561 9.9512 19.1562 8.40332C19.1562 7.24862 18.8249 6.1185 18.2021 5.15723C17.5794 4.196 16.6933 3.44545 15.6553 3.00195Z" fill="black" stroke="white" stroke-width="0.5"/>
</svg>
