<svg width="21" height="21" viewBox="0 0 21 21" fill="none" xmlns="http://www.w3.org/2000/svg">
<path d="M10.3125 0C8.77031 0 7.5 1.27031 7.5 2.8125C7.5 3.1425 7.56937 3.45375 7.67625 3.75H2.98875L2.84156 4.51219L0.0290626 18.5747L0 18.6619V20.625H20.625V18.6619L20.5959 18.5747L17.7834 4.51219L17.6362 3.75H12.9488C13.0614 3.45007 13.121 3.13285 13.125 2.8125C13.125 1.27031 11.8547 0 10.3125 0ZM10.3125 1.875C10.8403 1.875 11.25 2.28562 11.25 2.8125C11.25 3.34031 10.8394 3.75 10.3125 3.75C9.78469 3.75 9.375 3.33938 9.375 2.8125C9.375 2.28469 9.78563 1.875 10.3125 1.875ZM4.51125 5.625H16.1138L18.75 18.75H1.875L4.51125 5.625Z" fill="#C92531"/>
</svg>
